<?xml version="1.0" encoding="UTF-8"?>
<!DOCTYPE svg PUBLIC "-//W3C//DTD SVG 1.1//EN" "http://www.w3.org/Graphics/SVG/1.1/DTD/svg11.dtd">
<!-- Creator: CorelDRAW X7 -->
<svg xmlns="http://www.w3.org/2000/svg" xml:space="preserve" width="70px" height="20px" version="1.1" style="shape-rendering:geometricPrecision; text-rendering:geometricPrecision; image-rendering:optimizeQuality; fill-rule:evenodd; clip-rule:evenodd" 
viewBox="0 0 1100 300"
 xmlns:xlink="http://www.w3.org/1999/xlink">
 <defs>
  <style type="text/css">
   <![CDATA[
    .fil0 {fill:#fff;fill-rule:nonzero}
   ]]>
  </style>
 </defs>
 <g id="Camada_x0020_1">
  <metadata id="CorelCorpID_0Corel-Layer"/>
  <path class="fil0" d="M184 233l41 -192c-6,-3 -15,-4 -21,-4 -30,0 -64,35 -90,77 -6,0 -10,-1 -14,-1 -31,0 -53,15 -53,33 0,10 7,15 16,15 8,0 15,-4 15,-10 0,-4 -3,-9 -4,-9 4,-8 14,-12 31,-13 -23,40 -39,83 -39,106 0,27 21,28 35,28 -1,-3 -3,-7 -3,-15 0,-27 14,-77 34,-119 11,1 21,3 35,9l-21 95 38 0zm-15 -106c-10,-4 -22,-7 -32,-9 15,-30 31,-54 47,-62l-15 71zm67 -24l-27 130 37 0 21 -99c7,-6 11,-10 19,-10 8,0 1,17 15,17 13,0 19,-10 19,-19 0,-10 -6,-19 -18,-19 -12,0 -22,8 -31,16l3 -16 -38 0zm106 -37l-7 37 -9 0 -2 10 8 0 -15 73c-1,7 -2,12 -2,17 0,22 12,32 28,32 14,0 40,-6 54,-49l-10 0c-4,13 -14,23 -24,23 -7,0 -11,-2 -11,-9 0,-3 1,-5 1,-9l17 -78 16 0 2 -10 -16 0 9 -42 -39 5zm80 125c0,-3 0,-7 0,-11 32,-2 60,-25 60,-55 0,-13 -5,-25 -28,-25 -54,0 -71,63 -71,93 0,30 16,42 41,42 35,0 57,-25 72,-49l-9 0c-13,15 -26,27 -46,27 -13,0 -19,-5 -19,-22zm40 -66c0,21 -18,41 -38,43 6,-26 18,-54 32,-54 5,0 6,4 6,11zm164 14c0,16 -11,48 -11,66 0,15 6,30 26,30 14,0 26,-9 29,-27 -2,1 -5,1 -9,1 -8,0 -10,-4 -10,-11 0,-14 12,-46 12,-67 0,-21 -12,-30 -29,-30 -9,0 -24,3 -36,23 -3,-17 -13,-23 -27,-23 -9,0 -21,3 -32,15l3 -13 -38 0 -27 130 37 0 18 -84c4,-13 11,-24 21,-24 6,0 8,6 8,11 0,3 0,5 -1,7l-19 90 38 0 18 -84c4,-13 11,-24 20,-24 6,0 9,5 9,14l0 0zm186 -70c0,-29 -30,-32 -42,-32 -34,0 -61,20 -61,47 0,38 54,54 54,99 0,22 -13,35 -30,35 -17,0 -25,-12 -25,-25 0,-18 16,-25 30,-25 -1,-14 -14,-17 -23,-17 -18,0 -38,14 -38,43 0,31 25,44 55,44 38,0 73,-21 73,-65 0,-56 -58,-61 -58,-100 0,-15 9,-23 24,-23 14,0 19,8 19,17 0,9 -5,18 -12,22 4,4 8,6 12,6 13,0 22,-11 22,-26l0 0zm29 -1c0,11 10,20 21,20 11,0 21,-9 21,-20 0,-12 -10,-21 -21,-21 -11,0 -21,9 -21,21zm-5 35l-18 83c-1,7 -2,12 -2,17 0,22 13,32 28,32 14,0 40,-6 55,-49l-11 0c-4,13 -13,23 -23,23 -8,0 -11,-2 -11,-9 0,-3 0,-5 1,-9l19 -88 -38 0zm78 -37l-8 37 -9 0 -2 10 9 0 -16 73c-1,7 -2,12 -2,17 0,22 12,32 28,32 14,0 40,-6 55,-49l-11 0c-4,13 -14,23 -24,23 -7,0 -10,-2 -10,-9 0,-3 0,-5 1,-9l16 -78 16 0 2 -10 -16 0 9 -42 -38 5zm79 122c0,-2 0,-5 0,-8 32,-2 60,-25 60,-55 0,-13 -5,-25 -28,-25 -54,0 -71,63 -71,93 0,30 16,42 41,42 20,0 39,-9 45,-39 -9,7 -21,14 -31,14 -9,0 -16,-5 -16,-22zm40 -63c0,22 -18,42 -38,43 6,-25 19,-54 32,-54 5,0 6,4 6,11z"/>
 </g>
</svg>
